<?xml version="1.0" encoding="UTF-8" standalone="no"?>
<!DOCTYPE svg PUBLIC "-//W3C//DTD SVG 1.1//EN"
 "http://www.w3.org/Graphics/SVG/1.1/DTD/svg11.dtd">
<!-- Generated by graphviz version 2.38.0 (20140413.2041)
 -->
<!-- Title: G Pages: 1 -->
<svg width="557pt" height="1652pt"
 viewBox="0.00 0.00 802.50 2379.00" xmlns="http://www.w3.org/2000/svg" xmlns:xlink="http://www.w3.org/1999/xlink">
<g id="graph0" class="graph" transform="scale(0.694444 0.694444) rotate(0) translate(4 2375)">
<title>G</title>
<polygon fill="white" stroke="none" points="-4,4 -4,-2375 798.5,-2375 798.5,4 -4,4"/>
<!-- 2267732214392 -->
<g id="node1" class="node"><title>2267732214392</title>
<polygon fill="none" stroke="black" points="193.5,-2324.5 193.5,-2370.5 440.5,-2370.5 440.5,-2324.5 193.5,-2324.5"/>
<text text-anchor="middle" x="262" y="-2343.8" font-family="Times New Roman,serif" font-size="14.00">latents_in: InputLayer</text>
<polyline fill="none" stroke="black" points="330.5,-2324.5 330.5,-2370.5 "/>
<text text-anchor="middle" x="358.5" y="-2355.3" font-family="Times New Roman,serif" font-size="14.00">input:</text>
<polyline fill="none" stroke="black" points="330.5,-2347.5 386.5,-2347.5 "/>
<text text-anchor="middle" x="358.5" y="-2332.3" font-family="Times New Roman,serif" font-size="14.00">output:</text>
<polyline fill="none" stroke="black" points="386.5,-2324.5 386.5,-2370.5 "/>
<text text-anchor="middle" x="413.5" y="-2355.3" font-family="Times New Roman,serif" font-size="14.00">[(?, ?)]</text>
<polyline fill="none" stroke="black" points="386.5,-2347.5 440.5,-2347.5 "/>
<text text-anchor="middle" x="413.5" y="-2332.3" font-family="Times New Roman,serif" font-size="14.00">[(?, ?)]</text>
</g>
<!-- 2266411188176 -->
<g id="node3" class="node"><title>2266411188176</title>
<polygon fill="none" stroke="black" points="215.5,-2241.5 215.5,-2287.5 680.5,-2287.5 680.5,-2241.5 215.5,-2241.5"/>
<text text-anchor="middle" x="367.5" y="-2260.8" font-family="Times New Roman,serif" font-size="14.00">tf_op_layer_G_paper/concat: TensorFlowOpLayer</text>
<polyline fill="none" stroke="black" points="519.5,-2241.5 519.5,-2287.5 "/>
<text text-anchor="middle" x="547.5" y="-2272.3" font-family="Times New Roman,serif" font-size="14.00">input:</text>
<polyline fill="none" stroke="black" points="519.5,-2264.5 575.5,-2264.5 "/>
<text text-anchor="middle" x="547.5" y="-2249.3" font-family="Times New Roman,serif" font-size="14.00">output:</text>
<polyline fill="none" stroke="black" points="575.5,-2241.5 575.5,-2287.5 "/>
<text text-anchor="middle" x="628" y="-2272.3" font-family="Times New Roman,serif" font-size="14.00">[(?, 512), (?, 0)]</text>
<polyline fill="none" stroke="black" points="575.5,-2264.5 680.5,-2264.5 "/>
<text text-anchor="middle" x="628" y="-2249.3" font-family="Times New Roman,serif" font-size="14.00">[(?, 512)]</text>
</g>
<!-- 2267732214392&#45;&gt;2266411188176 -->
<g id="edge1" class="edge"><title>2267732214392&#45;&gt;2266411188176</title>
<path fill="none" stroke="black" d="M352.796,-2324.37C368.392,-2314.72 386.839,-2303.32 403.322,-2293.13"/>
<polygon fill="black" stroke="black" points="405.582,-2295.84 412.247,-2287.61 401.901,-2289.89 405.582,-2295.84"/>
</g>
<!-- 2267738878360 -->
<g id="node2" class="node"><title>2267738878360</title>
<polygon fill="none" stroke="black" points="458.5,-2324.5 458.5,-2370.5 701.5,-2370.5 701.5,-2324.5 458.5,-2324.5"/>
<text text-anchor="middle" x="525" y="-2343.8" font-family="Times New Roman,serif" font-size="14.00">labels_in: InputLayer</text>
<polyline fill="none" stroke="black" points="591.5,-2324.5 591.5,-2370.5 "/>
<text text-anchor="middle" x="619.5" y="-2355.3" font-family="Times New Roman,serif" font-size="14.00">input:</text>
<polyline fill="none" stroke="black" points="591.5,-2347.5 647.5,-2347.5 "/>
<text text-anchor="middle" x="619.5" y="-2332.3" font-family="Times New Roman,serif" font-size="14.00">output:</text>
<polyline fill="none" stroke="black" points="647.5,-2324.5 647.5,-2370.5 "/>
<text text-anchor="middle" x="674.5" y="-2355.3" font-family="Times New Roman,serif" font-size="14.00">[(?, ?)]</text>
<polyline fill="none" stroke="black" points="647.5,-2347.5 701.5,-2347.5 "/>
<text text-anchor="middle" x="674.5" y="-2332.3" font-family="Times New Roman,serif" font-size="14.00">[(?, ?)]</text>
</g>
<!-- 2267738878360&#45;&gt;2266411188176 -->
<g id="edge2" class="edge"><title>2267738878360&#45;&gt;2266411188176</title>
<path fill="none" stroke="black" d="M543.93,-2324.37C528.07,-2314.63 509.283,-2303.11 492.558,-2292.84"/>
<polygon fill="black" stroke="black" points="494.38,-2289.85 484.026,-2287.61 490.719,-2295.82 494.38,-2289.85"/>
</g>
<!-- 2267034552640 -->
<g id="node4" class="node"><title>2267034552640</title>
<polygon fill="none" stroke="black" points="47,-2158.5 47,-2204.5 563,-2204.5 563,-2158.5 47,-2158.5"/>
<text text-anchor="middle" x="243" y="-2177.8" font-family="Times New Roman,serif" font-size="14.00">tf_op_layer_G_paper/4x4/PixelNorm/Square: TensorFlowOpLayer</text>
<polyline fill="none" stroke="black" points="439,-2158.5 439,-2204.5 "/>
<text text-anchor="middle" x="467" y="-2189.3" font-family="Times New Roman,serif" font-size="14.00">input:</text>
<polyline fill="none" stroke="black" points="439,-2181.5 495,-2181.5 "/>
<text text-anchor="middle" x="467" y="-2166.3" font-family="Times New Roman,serif" font-size="14.00">output:</text>
<polyline fill="none" stroke="black" points="495,-2158.5 495,-2204.5 "/>
<text text-anchor="middle" x="529" y="-2189.3" font-family="Times New Roman,serif" font-size="14.00">(?, 512)</text>
<polyline fill="none" stroke="black" points="495,-2181.5 563,-2181.5 "/>
<text text-anchor="middle" x="529" y="-2166.3" font-family="Times New Roman,serif" font-size="14.00">[(?, 512)]</text>
</g>
<!-- 2266411188176&#45;&gt;2267034552640 -->
<g id="edge3" class="edge"><title>2266411188176&#45;&gt;2267034552640</title>
<path fill="none" stroke="black" d="M408.925,-2241.37C391.585,-2231.54 371.017,-2219.89 352.773,-2209.56"/>
<polygon fill="black" stroke="black" points="354.454,-2206.49 344.028,-2204.61 351.004,-2212.58 354.454,-2206.49"/>
</g>
<!-- 2267034595904 -->
<g id="node8" class="node"><title>2267034595904</title>
<polygon fill="none" stroke="black" points="184.5,-1826.5 184.5,-1872.5 719.5,-1872.5 719.5,-1826.5 184.5,-1826.5"/>
<text text-anchor="middle" x="371.5" y="-1845.8" font-family="Times New Roman,serif" font-size="14.00">tf_op_layer_G_paper/4x4/PixelNorm/mul: TensorFlowOpLayer</text>
<polyline fill="none" stroke="black" points="558.5,-1826.5 558.5,-1872.5 "/>
<text text-anchor="middle" x="586.5" y="-1857.3" font-family="Times New Roman,serif" font-size="14.00">input:</text>
<polyline fill="none" stroke="black" points="558.5,-1849.5 614.5,-1849.5 "/>
<text text-anchor="middle" x="586.5" y="-1834.3" font-family="Times New Roman,serif" font-size="14.00">output:</text>
<polyline fill="none" stroke="black" points="614.5,-1826.5 614.5,-1872.5 "/>
<text text-anchor="middle" x="667" y="-1857.3" font-family="Times New Roman,serif" font-size="14.00">[(?, 512), (?, 1)]</text>
<polyline fill="none" stroke="black" points="614.5,-1849.5 719.5,-1849.5 "/>
<text text-anchor="middle" x="667" y="-1834.3" font-family="Times New Roman,serif" font-size="14.00">[(?, 512)]</text>
</g>
<!-- 2266411188176&#45;&gt;2267034595904 -->
<g id="edge7" class="edge"><title>2266411188176&#45;&gt;2267034595904</title>
<path fill="none" stroke="black" d="M523.912,-2241.4C542.093,-2232.76 559.762,-2220.96 572,-2205 600.988,-2167.19 591,-2147.14 591,-2099.5 591,-2099.5 591,-2099.5 591,-2014.5 591,-1966.78 599.906,-1946.97 571,-1909 561.012,-1895.88 547.296,-1885.52 532.721,-1877.4"/>
<polygon fill="black" stroke="black" points="534.047,-1874.15 523.56,-1872.64 530.815,-1880.36 534.047,-1874.15"/>
</g>
<!-- 2267034552584 -->
<g id="node5" class="node"><title>2267034552584</title>
<polygon fill="none" stroke="black" points="59.5,-2075.5 59.5,-2121.5 558.5,-2121.5 558.5,-2075.5 59.5,-2075.5"/>
<text text-anchor="middle" x="251.5" y="-2094.8" font-family="Times New Roman,serif" font-size="14.00">tf_op_layer_G_paper/4x4/PixelNorm/Mean: TensorFlowOpLayer</text>
<polyline fill="none" stroke="black" points="443.5,-2075.5 443.5,-2121.5 "/>
<text text-anchor="middle" x="471.5" y="-2106.3" font-family="Times New Roman,serif" font-size="14.00">input:</text>
<polyline fill="none" stroke="black" points="443.5,-2098.5 499.5,-2098.5 "/>
<text text-anchor="middle" x="471.5" y="-2083.3" font-family="Times New Roman,serif" font-size="14.00">output:</text>
<polyline fill="none" stroke="black" points="499.5,-2075.5 499.5,-2121.5 "/>
<text text-anchor="middle" x="529" y="-2106.3" font-family="Times New Roman,serif" font-size="14.00">(?, 512)</text>
<polyline fill="none" stroke="black" points="499.5,-2098.5 558.5,-2098.5 "/>
<text text-anchor="middle" x="529" y="-2083.3" font-family="Times New Roman,serif" font-size="14.00">[(?, 1)]</text>
</g>
<!-- 2267034552640&#45;&gt;2267034552584 -->
<g id="edge4" class="edge"><title>2267034552640&#45;&gt;2267034552584</title>
<path fill="none" stroke="black" d="M306.093,-2158.37C306.499,-2150.15 306.968,-2140.66 307.409,-2131.73"/>
<polygon fill="black" stroke="black" points="310.911,-2131.77 307.908,-2121.61 303.919,-2131.42 310.911,-2131.77"/>
</g>
<!-- 2266411313416 -->
<g id="node6" class="node"><title>2266411313416</title>
<polygon fill="none" stroke="black" points="68.5,-1992.5 68.5,-2038.5 553.5,-2038.5 553.5,-1992.5 68.5,-1992.5"/>
<text text-anchor="middle" x="255.5" y="-2011.8" font-family="Times New Roman,serif" font-size="14.00">tf_op_layer_G_paper/4x4/PixelNorm/add: TensorFlowOpLayer</text>
<polyline fill="none" stroke="black" points="442.5,-1992.5 442.5,-2038.5 "/>
<text text-anchor="middle" x="470.5" y="-2023.3" font-family="Times New Roman,serif" font-size="14.00">input:</text>
<polyline fill="none" stroke="black" points="442.5,-2015.5 498.5,-2015.5 "/>
<text text-anchor="middle" x="470.5" y="-2000.3" font-family="Times New Roman,serif" font-size="14.00">output:</text>
<polyline fill="none" stroke="black" points="498.5,-1992.5 498.5,-2038.5 "/>
<text text-anchor="middle" x="526" y="-2023.3" font-family="Times New Roman,serif" font-size="14.00">(?, 1)</text>
<polyline fill="none" stroke="black" points="498.5,-2015.5 553.5,-2015.5 "/>
<text text-anchor="middle" x="526" y="-2000.3" font-family="Times New Roman,serif" font-size="14.00">[(?, 1)]</text>
</g>
<!-- 2267034552584&#45;&gt;2266411313416 -->
<g id="edge5" class="edge"><title>2267034552584&#45;&gt;2266411313416</title>
<path fill="none" stroke="black" d="M309.547,-2075.37C309.749,-2067.15 309.984,-2057.66 310.204,-2048.73"/>
<polygon fill="black" stroke="black" points="313.706,-2048.69 310.454,-2038.61 306.708,-2048.52 313.706,-2048.69"/>
</g>
<!-- 2267034595512 -->
<g id="node7" class="node"><title>2267034595512</title>
<polygon fill="none" stroke="black" points="66,-1909.5 66,-1955.5 562,-1955.5 562,-1909.5 66,-1909.5"/>
<text text-anchor="middle" x="258.5" y="-1928.8" font-family="Times New Roman,serif" font-size="14.00">tf_op_layer_G_paper/4x4/PixelNorm/Rsqrt: TensorFlowOpLayer</text>
<polyline fill="none" stroke="black" points="451,-1909.5 451,-1955.5 "/>
<text text-anchor="middle" x="479" y="-1940.3" font-family="Times New Roman,serif" font-size="14.00">input:</text>
<polyline fill="none" stroke="black" points="451,-1932.5 507,-1932.5 "/>
<text text-anchor="middle" x="479" y="-1917.3" font-family="Times New Roman,serif" font-size="14.00">output:</text>
<polyline fill="none" stroke="black" points="507,-1909.5 507,-1955.5 "/>
<text text-anchor="middle" x="534.5" y="-1940.3" font-family="Times New Roman,serif" font-size="14.00">(?, 1)</text>
<polyline fill="none" stroke="black" points="507,-1932.5 562,-1932.5 "/>
<text text-anchor="middle" x="534.5" y="-1917.3" font-family="Times New Roman,serif" font-size="14.00">[(?, 1)]</text>
</g>
<!-- 2266411313416&#45;&gt;2267034595512 -->
<g id="edge6" class="edge"><title>2266411313416&#45;&gt;2267034595512</title>
<path fill="none" stroke="black" d="M311.82,-1992.37C312.124,-1984.15 312.476,-1974.66 312.806,-1965.73"/>
<polygon fill="black" stroke="black" points="316.309,-1965.73 313.181,-1955.61 309.313,-1965.47 316.309,-1965.73"/>
</g>
<!-- 2267034595512&#45;&gt;2267034595904 -->
<g id="edge8" class="edge"><title>2267034595512&#45;&gt;2267034595904</title>
<path fill="none" stroke="black" d="M351.709,-1909.37C368.291,-1899.63 387.931,-1888.11 405.417,-1877.84"/>
<polygon fill="black" stroke="black" points="407.484,-1880.69 414.336,-1872.61 403.941,-1874.65 407.484,-1880.69"/>
</g>
<!-- 2267034596464 -->
<g id="node9" class="node"><title>2267034596464</title>
<polygon fill="none" stroke="black" points="200.5,-1743.5 200.5,-1789.5 703.5,-1789.5 703.5,-1743.5 200.5,-1743.5"/>
<text text-anchor="middle" x="386.5" y="-1762.8" font-family="Times New Roman,serif" font-size="14.00">tf_op_layer_G_paper/4x4/Dense/MatMul: TensorFlowOpLayer</text>
<polyline fill="none" stroke="black" points="572.5,-1743.5 572.5,-1789.5 "/>
<text text-anchor="middle" x="600.5" y="-1774.3" font-family="Times New Roman,serif" font-size="14.00">input:</text>
<polyline fill="none" stroke="black" points="572.5,-1766.5 628.5,-1766.5 "/>
<text text-anchor="middle" x="600.5" y="-1751.3" font-family="Times New Roman,serif" font-size="14.00">output:</text>
<polyline fill="none" stroke="black" points="628.5,-1743.5 628.5,-1789.5 "/>
<text text-anchor="middle" x="666" y="-1774.3" font-family="Times New Roman,serif" font-size="14.00">(?, 512)</text>
<polyline fill="none" stroke="black" points="628.5,-1766.5 703.5,-1766.5 "/>
<text text-anchor="middle" x="666" y="-1751.3" font-family="Times New Roman,serif" font-size="14.00">[(?, 8192)]</text>
</g>
<!-- 2267034595904&#45;&gt;2267034596464 -->
<g id="edge9" class="edge"><title>2267034595904&#45;&gt;2267034596464</title>
<path fill="none" stroke="black" d="M452,-1826.37C452,-1818.15 452,-1808.66 452,-1799.73"/>
<polygon fill="black" stroke="black" points="455.5,-1799.61 452,-1789.61 448.5,-1799.61 455.5,-1799.61"/>
</g>
<!-- 2267034596688 -->
<g id="node10" class="node"><title>2267034596688</title>
<polygon fill="none" stroke="black" points="187,-1660.5 187,-1706.5 717,-1706.5 717,-1660.5 187,-1660.5"/>
<text text-anchor="middle" x="375.5" y="-1679.8" font-family="Times New Roman,serif" font-size="14.00">tf_op_layer_G_paper/4x4/Dense/Reshape: TensorFlowOpLayer</text>
<polyline fill="none" stroke="black" points="564,-1660.5 564,-1706.5 "/>
<text text-anchor="middle" x="592" y="-1691.3" font-family="Times New Roman,serif" font-size="14.00">input:</text>
<polyline fill="none" stroke="black" points="564,-1683.5 620,-1683.5 "/>
<text text-anchor="middle" x="592" y="-1668.3" font-family="Times New Roman,serif" font-size="14.00">output:</text>
<polyline fill="none" stroke="black" points="620,-1660.5 620,-1706.5 "/>
<text text-anchor="middle" x="668.5" y="-1691.3" font-family="Times New Roman,serif" font-size="14.00">(?, 8192)</text>
<polyline fill="none" stroke="black" points="620,-1683.5 717,-1683.5 "/>
<text text-anchor="middle" x="668.5" y="-1668.3" font-family="Times New Roman,serif" font-size="14.00">[(?, 512, 4, 4)]</text>
</g>
<!-- 2267034596464&#45;&gt;2267034596688 -->
<g id="edge10" class="edge"><title>2267034596464&#45;&gt;2267034596688</title>
<path fill="none" stroke="black" d="M452,-1743.37C452,-1735.15 452,-1725.66 452,-1716.73"/>
<polygon fill="black" stroke="black" points="455.5,-1716.61 452,-1706.61 448.5,-1716.61 455.5,-1716.61"/>
</g>
<!-- 2267034596912 -->
<g id="node11" class="node"><title>2267034596912</title>
<polygon fill="none" stroke="black" points="200.5,-1577.5 200.5,-1623.5 703.5,-1623.5 703.5,-1577.5 200.5,-1577.5"/>
<text text-anchor="middle" x="375.5" y="-1596.8" font-family="Times New Roman,serif" font-size="14.00">tf_op_layer_G_paper/4x4/Dense/add: TensorFlowOpLayer</text>
<polyline fill="none" stroke="black" points="550.5,-1577.5 550.5,-1623.5 "/>
<text text-anchor="middle" x="578.5" y="-1608.3" font-family="Times New Roman,serif" font-size="14.00">input:</text>
<polyline fill="none" stroke="black" points="550.5,-1600.5 606.5,-1600.5 "/>
<text text-anchor="middle" x="578.5" y="-1585.3" font-family="Times New Roman,serif" font-size="14.00">output:</text>
<polyline fill="none" stroke="black" points="606.5,-1577.5 606.5,-1623.5 "/>
<text text-anchor="middle" x="655" y="-1608.3" font-family="Times New Roman,serif" font-size="14.00">(?, 512, 4, 4)</text>
<polyline fill="none" stroke="black" points="606.5,-1600.5 703.5,-1600.5 "/>
<text text-anchor="middle" x="655" y="-1585.3" font-family="Times New Roman,serif" font-size="14.00">[(?, 512, 4, 4)]</text>
</g>
<!-- 2267034596688&#45;&gt;2267034596912 -->
<g id="edge11" class="edge"><title>2267034596688&#45;&gt;2267034596912</title>
<path fill="none" stroke="black" d="M452,-1660.37C452,-1652.15 452,-1642.66 452,-1633.73"/>
<polygon fill="black" stroke="black" points="455.5,-1633.61 452,-1623.61 448.5,-1633.61 455.5,-1633.61"/>
</g>
<!-- 2267034597136 -->
<g id="node12" class="node"><title>2267034597136</title>
<polygon fill="none" stroke="black" points="14.5,-1494.5 14.5,-1540.5 579.5,-1540.5 579.5,-1494.5 14.5,-1494.5"/>
<text text-anchor="middle" x="220.5" y="-1513.8" font-family="Times New Roman,serif" font-size="14.00">tf_op_layer_G_paper/4x4/Dense/LeakyRelu/mul: TensorFlowOpLayer</text>
<polyline fill="none" stroke="black" points="426.5,-1494.5 426.5,-1540.5 "/>
<text text-anchor="middle" x="454.5" y="-1525.3" font-family="Times New Roman,serif" font-size="14.00">input:</text>
<polyline fill="none" stroke="black" points="426.5,-1517.5 482.5,-1517.5 "/>
<text text-anchor="middle" x="454.5" y="-1502.3" font-family="Times New Roman,serif" font-size="14.00">output:</text>
<polyline fill="none" stroke="black" points="482.5,-1494.5 482.5,-1540.5 "/>
<text text-anchor="middle" x="531" y="-1525.3" font-family="Times New Roman,serif" font-size="14.00">(?, 512, 4, 4)</text>
<polyline fill="none" stroke="black" points="482.5,-1517.5 579.5,-1517.5 "/>
<text text-anchor="middle" x="531" y="-1502.3" font-family="Times New Roman,serif" font-size="14.00">[(?, 512, 4, 4)]</text>
</g>
<!-- 2267034596912&#45;&gt;2267034597136 -->
<g id="edge12" class="edge"><title>2267034596912&#45;&gt;2267034597136</title>
<path fill="none" stroke="black" d="M409.646,-1577.37C390.68,-1567.46 368.151,-1555.68 348.243,-1545.28"/>
<polygon fill="black" stroke="black" points="349.787,-1542.14 339.303,-1540.61 346.545,-1548.34 349.787,-1542.14"/>
</g>
<!-- 2267034597360 -->
<g id="node13" class="node"><title>2267034597360</title>
<polygon fill="none" stroke="black" points="112.5,-1411.5 112.5,-1457.5 791.5,-1457.5 791.5,-1411.5 112.5,-1411.5"/>
<text text-anchor="middle" x="336" y="-1430.8" font-family="Times New Roman,serif" font-size="14.00">tf_op_layer_G_paper/4x4/Dense/LeakyRelu/Maximum: TensorFlowOpLayer</text>
<polyline fill="none" stroke="black" points="559.5,-1411.5 559.5,-1457.5 "/>
<text text-anchor="middle" x="587.5" y="-1442.3" font-family="Times New Roman,serif" font-size="14.00">input:</text>
<polyline fill="none" stroke="black" points="559.5,-1434.5 615.5,-1434.5 "/>
<text text-anchor="middle" x="587.5" y="-1419.3" font-family="Times New Roman,serif" font-size="14.00">output:</text>
<polyline fill="none" stroke="black" points="615.5,-1411.5 615.5,-1457.5 "/>
<text text-anchor="middle" x="703.5" y="-1442.3" font-family="Times New Roman,serif" font-size="14.00">[(?, 512, 4, 4), (?, 512, 4, 4)]</text>
<polyline fill="none" stroke="black" points="615.5,-1434.5 791.5,-1434.5 "/>
<text text-anchor="middle" x="703.5" y="-1419.3" font-family="Times New Roman,serif" font-size="14.00">[(?, 512, 4, 4)]</text>
</g>
<!-- 2267034596912&#45;&gt;2267034597360 -->
<g id="edge14" class="edge"><title>2267034596912&#45;&gt;2267034597360</title>
<path fill="none" stroke="black" d="M543.574,-1577.44C561.122,-1568.94 577.328,-1557.21 588,-1541 599.488,-1523.55 599.488,-1511.45 588,-1494 579.162,-1480.58 566.529,-1470.22 552.482,-1462.24"/>
<polygon fill="black" stroke="black" points="554.055,-1459.11 543.574,-1457.56 550.804,-1465.31 554.055,-1459.11"/>
</g>
<!-- 2267034597136&#45;&gt;2267034597360 -->
<g id="edge13" class="edge"><title>2267034597136&#45;&gt;2267034597360</title>
<path fill="none" stroke="black" d="M339.354,-1494.37C358.32,-1484.46 380.849,-1472.68 400.757,-1462.28"/>
<polygon fill="black" stroke="black" points="402.455,-1465.34 409.697,-1457.61 399.213,-1459.14 402.455,-1465.34"/>
</g>
<!-- 2267034597808 -->
<g id="node14" class="node"><title>2267034597808</title>
<polygon fill="none" stroke="black" points="0,-1328.5 0,-1374.5 584,-1374.5 584,-1328.5 0,-1328.5"/>
<text text-anchor="middle" x="215.5" y="-1347.8" font-family="Times New Roman,serif" font-size="14.00">tf_op_layer_G_paper/4x4/Dense/PixelNorm/Square: TensorFlowOpLayer</text>
<polyline fill="none" stroke="black" points="431,-1328.5 431,-1374.5 "/>
<text text-anchor="middle" x="459" y="-1359.3" font-family="Times New Roman,serif" font-size="14.00">input:</text>
<polyline fill="none" stroke="black" points="431,-1351.5 487,-1351.5 "/>
<text text-anchor="middle" x="459" y="-1336.3" font-family="Times New Roman,serif" font-size="14.00">output:</text>
<polyline fill="none" stroke="black" points="487,-1328.5 487,-1374.5 "/>
<text text-anchor="middle" x="535.5" y="-1359.3" font-family="Times New Roman,serif" font-size="14.00">(?, 512, 4, 4)</text>
<polyline fill="none" stroke="black" points="487,-1351.5 584,-1351.5 "/>
<text text-anchor="middle" x="535.5" y="-1336.3" font-family="Times New Roman,serif" font-size="14.00">[(?, 512, 4, 4)]</text>
</g>
<!-- 2267034597360&#45;&gt;2267034597808 -->
<g id="edge15" class="edge"><title>2267034597360&#45;&gt;2267034597808</title>
<path fill="none" stroke="black" d="M408.279,-1411.37C388.613,-1401.41 365.236,-1389.58 344.619,-1379.14"/>
<polygon fill="black" stroke="black" points="346.171,-1376 335.668,-1374.61 343.009,-1382.25 346.171,-1376"/>
</g>
<!-- 2267034598704 -->
<g id="node18" class="node"><title>2267034598704</title>
<polygon fill="none" stroke="black" points="142,-996.5 142,-1042.5 772,-1042.5 772,-996.5 142,-996.5"/>
<text text-anchor="middle" x="348" y="-1015.8" font-family="Times New Roman,serif" font-size="14.00">tf_op_layer_G_paper/4x4/Dense/PixelNorm/mul: TensorFlowOpLayer</text>
<polyline fill="none" stroke="black" points="554,-996.5 554,-1042.5 "/>
<text text-anchor="middle" x="582" y="-1027.3" font-family="Times New Roman,serif" font-size="14.00">input:</text>
<polyline fill="none" stroke="black" points="554,-1019.5 610,-1019.5 "/>
<text text-anchor="middle" x="582" y="-1004.3" font-family="Times New Roman,serif" font-size="14.00">output:</text>
<polyline fill="none" stroke="black" points="610,-996.5 610,-1042.5 "/>
<text text-anchor="middle" x="691" y="-1027.3" font-family="Times New Roman,serif" font-size="14.00">[(?, 512, 4, 4), (?, 1, 4, 4)]</text>
<polyline fill="none" stroke="black" points="610,-1019.5 772,-1019.5 "/>
<text text-anchor="middle" x="691" y="-1004.3" font-family="Times New Roman,serif" font-size="14.00">[(?, 512, 4, 4)]</text>
</g>
<!-- 2267034597360&#45;&gt;2267034598704 -->
<g id="edge19" class="edge"><title>2267034597360&#45;&gt;2267034598704</title>
<path fill="none" stroke="black" d="M542.905,-1411.34C561.883,-1402.82 580.036,-1391.1 593,-1375 622.878,-1337.89 612,-1317.14 612,-1269.5 612,-1269.5 612,-1269.5 612,-1184.5 612,-1136.78 621.808,-1116.27 592,-1079 581.264,-1065.58 566.844,-1055.17 551.419,-1047.12"/>
<polygon fill="black" stroke="black" points="552.763,-1043.88 542.24,-1042.64 549.696,-1050.17 552.763,-1043.88"/>
</g>
<!-- 2267034597752 -->
<g id="node15" class="node"><title>2267034597752</title>
<polygon fill="none" stroke="black" points="14,-1245.5 14,-1291.5 580,-1291.5 580,-1245.5 14,-1245.5"/>
<text text-anchor="middle" x="225" y="-1264.8" font-family="Times New Roman,serif" font-size="14.00">tf_op_layer_G_paper/4x4/Dense/PixelNorm/Mean: TensorFlowOpLayer</text>
<polyline fill="none" stroke="black" points="436,-1245.5 436,-1291.5 "/>
<text text-anchor="middle" x="464" y="-1276.3" font-family="Times New Roman,serif" font-size="14.00">input:</text>
<polyline fill="none" stroke="black" points="436,-1268.5 492,-1268.5 "/>
<text text-anchor="middle" x="464" y="-1253.3" font-family="Times New Roman,serif" font-size="14.00">output:</text>
<polyline fill="none" stroke="black" points="492,-1245.5 492,-1291.5 "/>
<text text-anchor="middle" x="536" y="-1276.3" font-family="Times New Roman,serif" font-size="14.00">(?, 512, 4, 4)</text>
<polyline fill="none" stroke="black" points="492,-1268.5 580,-1268.5 "/>
<text text-anchor="middle" x="536" y="-1253.3" font-family="Times New Roman,serif" font-size="14.00">[(?, 1, 4, 4)]</text>
</g>
<!-- 2267034597808&#45;&gt;2267034597752 -->
<g id="edge16" class="edge"><title>2267034597808&#45;&gt;2267034597752</title>
<path fill="none" stroke="black" d="M293.366,-1328.37C293.873,-1320.15 294.459,-1310.66 295.011,-1301.73"/>
<polygon fill="black" stroke="black" points="298.513,-1301.8 295.635,-1291.61 291.526,-1301.37 298.513,-1301.8"/>
</g>
<!-- 2267034597696 -->
<g id="node16" class="node"><title>2267034597696</title>
<polygon fill="none" stroke="black" points="23,-1162.5 23,-1208.5 575,-1208.5 575,-1162.5 23,-1162.5"/>
<text text-anchor="middle" x="229.5" y="-1181.8" font-family="Times New Roman,serif" font-size="14.00">tf_op_layer_G_paper/4x4/Dense/PixelNorm/add: TensorFlowOpLayer</text>
<polyline fill="none" stroke="black" points="436,-1162.5 436,-1208.5 "/>
<text text-anchor="middle" x="464" y="-1193.3" font-family="Times New Roman,serif" font-size="14.00">input:</text>
<polyline fill="none" stroke="black" points="436,-1185.5 492,-1185.5 "/>
<text text-anchor="middle" x="464" y="-1170.3" font-family="Times New Roman,serif" font-size="14.00">output:</text>
<polyline fill="none" stroke="black" points="492,-1162.5 492,-1208.5 "/>
<text text-anchor="middle" x="533.5" y="-1193.3" font-family="Times New Roman,serif" font-size="14.00">(?, 1, 4, 4)</text>
<polyline fill="none" stroke="black" points="492,-1185.5 575,-1185.5 "/>
<text text-anchor="middle" x="533.5" y="-1170.3" font-family="Times New Roman,serif" font-size="14.00">[(?, 1, 4, 4)]</text>
</g>
<!-- 2267034597752&#45;&gt;2267034597696 -->
<g id="edge17" class="edge"><title>2267034597752&#45;&gt;2267034597696</title>
<path fill="none" stroke="black" d="M297.547,-1245.37C297.749,-1237.15 297.984,-1227.66 298.204,-1218.73"/>
<polygon fill="black" stroke="black" points="301.706,-1218.69 298.454,-1208.61 294.708,-1218.52 301.706,-1218.69"/>
</g>
<!-- 2267034597584 -->
<g id="node17" class="node"><title>2267034597584</title>
<polygon fill="none" stroke="black" points="21,-1079.5 21,-1125.5 583,-1125.5 583,-1079.5 21,-1079.5"/>
<text text-anchor="middle" x="232.5" y="-1098.8" font-family="Times New Roman,serif" font-size="14.00">tf_op_layer_G_paper/4x4/Dense/PixelNorm/Rsqrt: TensorFlowOpLayer</text>
<polyline fill="none" stroke="black" points="444,-1079.5 444,-1125.5 "/>
<text text-anchor="middle" x="472" y="-1110.3" font-family="Times New Roman,serif" font-size="14.00">input:</text>
<polyline fill="none" stroke="black" points="444,-1102.5 500,-1102.5 "/>
<text text-anchor="middle" x="472" y="-1087.3" font-family="Times New Roman,serif" font-size="14.00">output:</text>
<polyline fill="none" stroke="black" points="500,-1079.5 500,-1125.5 "/>
<text text-anchor="middle" x="541.5" y="-1110.3" font-family="Times New Roman,serif" font-size="14.00">(?, 1, 4, 4)</text>
<polyline fill="none" stroke="black" points="500,-1102.5 583,-1102.5 "/>
<text text-anchor="middle" x="541.5" y="-1087.3" font-family="Times New Roman,serif" font-size="14.00">[(?, 1, 4, 4)]</text>
</g>
<!-- 2267034597696&#45;&gt;2267034597584 -->
<g id="edge18" class="edge"><title>2267034597696&#45;&gt;2267034597584</title>
<path fill="none" stroke="black" d="M299.82,-1162.37C300.124,-1154.15 300.476,-1144.66 300.806,-1135.73"/>
<polygon fill="black" stroke="black" points="304.309,-1135.73 301.181,-1125.61 297.313,-1135.47 304.309,-1135.73"/>
</g>
<!-- 2267034597584&#45;&gt;2267034598704 -->
<g id="edge20" class="edge"><title>2267034597584&#45;&gt;2267034598704</title>
<path fill="none" stroke="black" d="M344.354,-1079.37C363.32,-1069.46 385.849,-1057.68 405.757,-1047.28"/>
<polygon fill="black" stroke="black" points="407.455,-1050.34 414.697,-1042.61 404.213,-1044.14 407.455,-1050.34"/>
</g>
<!-- 2267034599264 -->
<g id="node19" class="node"><title>2267034599264</title>
<polygon fill="none" stroke="black" points="194.5,-913.5 194.5,-959.5 719.5,-959.5 719.5,-913.5 194.5,-913.5"/>
<text text-anchor="middle" x="380.5" y="-932.8" font-family="Times New Roman,serif" font-size="14.00">tf_op_layer_G_paper/4x4/Conv/Conv2D: TensorFlowOpLayer</text>
<polyline fill="none" stroke="black" points="566.5,-913.5 566.5,-959.5 "/>
<text text-anchor="middle" x="594.5" y="-944.3" font-family="Times New Roman,serif" font-size="14.00">input:</text>
<polyline fill="none" stroke="black" points="566.5,-936.5 622.5,-936.5 "/>
<text text-anchor="middle" x="594.5" y="-921.3" font-family="Times New Roman,serif" font-size="14.00">output:</text>
<polyline fill="none" stroke="black" points="622.5,-913.5 622.5,-959.5 "/>
<text text-anchor="middle" x="671" y="-944.3" font-family="Times New Roman,serif" font-size="14.00">(?, 512, 4, 4)</text>
<polyline fill="none" stroke="black" points="622.5,-936.5 719.5,-936.5 "/>
<text text-anchor="middle" x="671" y="-921.3" font-family="Times New Roman,serif" font-size="14.00">[(?, 512, 4, 4)]</text>
</g>
<!-- 2267034598704&#45;&gt;2267034599264 -->
<g id="edge21" class="edge"><title>2267034598704&#45;&gt;2267034599264</title>
<path fill="none" stroke="black" d="M457,-996.366C457,-988.152 457,-978.658 457,-969.725"/>
<polygon fill="black" stroke="black" points="460.5,-969.607 457,-959.607 453.5,-969.607 460.5,-969.607"/>
</g>
<!-- 2267034681472 -->
<g id="node20" class="node"><title>2267034681472</title>
<polygon fill="none" stroke="black" points="207.5,-830.5 207.5,-876.5 706.5,-876.5 706.5,-830.5 207.5,-830.5"/>
<text text-anchor="middle" x="380.5" y="-849.8" font-family="Times New Roman,serif" font-size="14.00">tf_op_layer_G_paper/4x4/Conv/add: TensorFlowOpLayer</text>
<polyline fill="none" stroke="black" points="553.5,-830.5 553.5,-876.5 "/>
<text text-anchor="middle" x="581.5" y="-861.3" font-family="Times New Roman,serif" font-size="14.00">input:</text>
<polyline fill="none" stroke="black" points="553.5,-853.5 609.5,-853.5 "/>
<text text-anchor="middle" x="581.5" y="-838.3" font-family="Times New Roman,serif" font-size="14.00">output:</text>
<polyline fill="none" stroke="black" points="609.5,-830.5 609.5,-876.5 "/>
<text text-anchor="middle" x="658" y="-861.3" font-family="Times New Roman,serif" font-size="14.00">(?, 512, 4, 4)</text>
<polyline fill="none" stroke="black" points="609.5,-853.5 706.5,-853.5 "/>
<text text-anchor="middle" x="658" y="-838.3" font-family="Times New Roman,serif" font-size="14.00">[(?, 512, 4, 4)]</text>
</g>
<!-- 2267034599264&#45;&gt;2267034681472 -->
<g id="edge22" class="edge"><title>2267034599264&#45;&gt;2267034681472</title>
<path fill="none" stroke="black" d="M457,-913.366C457,-905.152 457,-895.658 457,-886.725"/>
<polygon fill="black" stroke="black" points="460.5,-886.607 457,-876.607 453.5,-886.607 460.5,-886.607"/>
</g>
<!-- 2267034681696 -->
<g id="node21" class="node"><title>2267034681696</title>
<polygon fill="none" stroke="black" points="22.5,-747.5 22.5,-793.5 583.5,-793.5 583.5,-747.5 22.5,-747.5"/>
<text text-anchor="middle" x="226.5" y="-766.8" font-family="Times New Roman,serif" font-size="14.00">tf_op_layer_G_paper/4x4/Conv/LeakyRelu/mul: TensorFlowOpLayer</text>
<polyline fill="none" stroke="black" points="430.5,-747.5 430.5,-793.5 "/>
<text text-anchor="middle" x="458.5" y="-778.3" font-family="Times New Roman,serif" font-size="14.00">input:</text>
<polyline fill="none" stroke="black" points="430.5,-770.5 486.5,-770.5 "/>
<text text-anchor="middle" x="458.5" y="-755.3" font-family="Times New Roman,serif" font-size="14.00">output:</text>
<polyline fill="none" stroke="black" points="486.5,-747.5 486.5,-793.5 "/>
<text text-anchor="middle" x="535" y="-778.3" font-family="Times New Roman,serif" font-size="14.00">(?, 512, 4, 4)</text>
<polyline fill="none" stroke="black" points="486.5,-770.5 583.5,-770.5 "/>
<text text-anchor="middle" x="535" y="-755.3" font-family="Times New Roman,serif" font-size="14.00">[(?, 512, 4, 4)]</text>
</g>
<!-- 2267034681472&#45;&gt;2267034681696 -->
<g id="edge23" class="edge"><title>2267034681472&#45;&gt;2267034681696</title>
<path fill="none" stroke="black" d="M414.919,-830.366C396.075,-820.455 373.692,-808.682 353.913,-798.279"/>
<polygon fill="black" stroke="black" points="355.51,-795.164 345.03,-793.607 352.251,-801.36 355.51,-795.164"/>
</g>
<!-- 2267034681920 -->
<g id="node22" class="node"><title>2267034681920</title>
<polygon fill="none" stroke="black" points="119.5,-664.5 119.5,-710.5 794.5,-710.5 794.5,-664.5 119.5,-664.5"/>
<text text-anchor="middle" x="341" y="-683.8" font-family="Times New Roman,serif" font-size="14.00">tf_op_layer_G_paper/4x4/Conv/LeakyRelu/Maximum: TensorFlowOpLayer</text>
<polyline fill="none" stroke="black" points="562.5,-664.5 562.5,-710.5 "/>
<text text-anchor="middle" x="590.5" y="-695.3" font-family="Times New Roman,serif" font-size="14.00">input:</text>
<polyline fill="none" stroke="black" points="562.5,-687.5 618.5,-687.5 "/>
<text text-anchor="middle" x="590.5" y="-672.3" font-family="Times New Roman,serif" font-size="14.00">output:</text>
<polyline fill="none" stroke="black" points="618.5,-664.5 618.5,-710.5 "/>
<text text-anchor="middle" x="706.5" y="-695.3" font-family="Times New Roman,serif" font-size="14.00">[(?, 512, 4, 4), (?, 512, 4, 4)]</text>
<polyline fill="none" stroke="black" points="618.5,-687.5 794.5,-687.5 "/>
<text text-anchor="middle" x="706.5" y="-672.3" font-family="Times New Roman,serif" font-size="14.00">[(?, 512, 4, 4)]</text>
</g>
<!-- 2267034681472&#45;&gt;2267034681920 -->
<g id="edge25" class="edge"><title>2267034681472&#45;&gt;2267034681920</title>
<path fill="none" stroke="black" d="M547.568,-830.475C565.119,-821.977 581.346,-810.228 592,-794 603.464,-776.538 603.464,-764.462 592,-747 583.177,-733.561 570.533,-723.194 556.479,-715.201"/>
<polygon fill="black" stroke="black" points="558.049,-712.072 547.568,-710.525 554.797,-718.271 558.049,-712.072"/>
</g>
<!-- 2267034681696&#45;&gt;2267034681920 -->
<g id="edge24" class="edge"><title>2267034681696&#45;&gt;2267034681920</title>
<path fill="none" stroke="black" d="M345.081,-747.366C363.925,-737.455 386.308,-725.682 406.087,-715.279"/>
<polygon fill="black" stroke="black" points="407.749,-718.36 414.97,-710.607 404.49,-712.164 407.749,-718.36"/>
</g>
<!-- 2267034682368 -->
<g id="node23" class="node"><title>2267034682368</title>
<polygon fill="none" stroke="black" points="8,-581.5 8,-627.5 588,-627.5 588,-581.5 8,-581.5"/>
<text text-anchor="middle" x="221.5" y="-600.8" font-family="Times New Roman,serif" font-size="14.00">tf_op_layer_G_paper/4x4/Conv/PixelNorm/Square: TensorFlowOpLayer</text>
<polyline fill="none" stroke="black" points="435,-581.5 435,-627.5 "/>
<text text-anchor="middle" x="463" y="-612.3" font-family="Times New Roman,serif" font-size="14.00">input:</text>
<polyline fill="none" stroke="black" points="435,-604.5 491,-604.5 "/>
<text text-anchor="middle" x="463" y="-589.3" font-family="Times New Roman,serif" font-size="14.00">output:</text>
<polyline fill="none" stroke="black" points="491,-581.5 491,-627.5 "/>
<text text-anchor="middle" x="539.5" y="-612.3" font-family="Times New Roman,serif" font-size="14.00">(?, 512, 4, 4)</text>
<polyline fill="none" stroke="black" points="491,-604.5 588,-604.5 "/>
<text text-anchor="middle" x="539.5" y="-589.3" font-family="Times New Roman,serif" font-size="14.00">[(?, 512, 4, 4)]</text>
</g>
<!-- 2267034681920&#45;&gt;2267034682368 -->
<g id="edge26" class="edge"><title>2267034681920&#45;&gt;2267034682368</title>
<path fill="none" stroke="black" d="M413.553,-664.366C394.097,-654.455 370.987,-642.682 350.566,-632.279"/>
<polygon fill="black" stroke="black" points="351.894,-629.028 341.395,-627.607 348.717,-635.265 351.894,-629.028"/>
</g>
<!-- 2267034683264 -->
<g id="node27" class="node"><title>2267034683264</title>
<polygon fill="none" stroke="black" points="148,-249.5 148,-295.5 774,-295.5 774,-249.5 148,-249.5"/>
<text text-anchor="middle" x="352" y="-268.8" font-family="Times New Roman,serif" font-size="14.00">tf_op_layer_G_paper/4x4/Conv/PixelNorm/mul: TensorFlowOpLayer</text>
<polyline fill="none" stroke="black" points="556,-249.5 556,-295.5 "/>
<text text-anchor="middle" x="584" y="-280.3" font-family="Times New Roman,serif" font-size="14.00">input:</text>
<polyline fill="none" stroke="black" points="556,-272.5 612,-272.5 "/>
<text text-anchor="middle" x="584" y="-257.3" font-family="Times New Roman,serif" font-size="14.00">output:</text>
<polyline fill="none" stroke="black" points="612,-249.5 612,-295.5 "/>
<text text-anchor="middle" x="693" y="-280.3" font-family="Times New Roman,serif" font-size="14.00">[(?, 512, 4, 4), (?, 1, 4, 4)]</text>
<polyline fill="none" stroke="black" points="612,-272.5 774,-272.5 "/>
<text text-anchor="middle" x="693" y="-257.3" font-family="Times New Roman,serif" font-size="14.00">[(?, 512, 4, 4)]</text>
</g>
<!-- 2267034681920&#45;&gt;2267034683264 -->
<g id="edge30" class="edge"><title>2267034681920&#45;&gt;2267034683264</title>
<path fill="none" stroke="black" d="M546.908,-664.382C565.881,-655.859 584.052,-644.123 597,-628 626.831,-590.852 616,-570.143 616,-522.5 616,-522.5 616,-522.5 616,-437.5 616,-389.691 624.981,-369.24 595,-332 584.155,-318.529 569.592,-308.085 554.058,-300.011"/>
<polygon fill="black" stroke="black" points="555.344,-296.745 544.82,-295.525 552.287,-303.042 555.344,-296.745"/>
</g>
<!-- 2267034682312 -->
<g id="node24" class="node"><title>2267034682312</title>
<polygon fill="none" stroke="black" points="20.5,-498.5 20.5,-544.5 583.5,-544.5 583.5,-498.5 20.5,-498.5"/>
<text text-anchor="middle" x="230" y="-517.8" font-family="Times New Roman,serif" font-size="14.00">tf_op_layer_G_paper/4x4/Conv/PixelNorm/Mean: TensorFlowOpLayer</text>
<polyline fill="none" stroke="black" points="439.5,-498.5 439.5,-544.5 "/>
<text text-anchor="middle" x="467.5" y="-529.3" font-family="Times New Roman,serif" font-size="14.00">input:</text>
<polyline fill="none" stroke="black" points="439.5,-521.5 495.5,-521.5 "/>
<text text-anchor="middle" x="467.5" y="-506.3" font-family="Times New Roman,serif" font-size="14.00">output:</text>
<polyline fill="none" stroke="black" points="495.5,-498.5 495.5,-544.5 "/>
<text text-anchor="middle" x="539.5" y="-529.3" font-family="Times New Roman,serif" font-size="14.00">(?, 512, 4, 4)</text>
<polyline fill="none" stroke="black" points="495.5,-521.5 583.5,-521.5 "/>
<text text-anchor="middle" x="539.5" y="-506.3" font-family="Times New Roman,serif" font-size="14.00">[(?, 1, 4, 4)]</text>
</g>
<!-- 2267034682368&#45;&gt;2267034682312 -->
<g id="edge27" class="edge"><title>2267034682368&#45;&gt;2267034682312</title>
<path fill="none" stroke="black" d="M299.093,-581.366C299.499,-573.152 299.968,-563.658 300.409,-554.725"/>
<polygon fill="black" stroke="black" points="303.911,-554.767 300.908,-544.607 296.919,-554.422 303.911,-554.767"/>
</g>
<!-- 2267034682256 -->
<g id="node25" class="node"><title>2267034682256</title>
<polygon fill="none" stroke="black" points="30,-415.5 30,-461.5 578,-461.5 578,-415.5 30,-415.5"/>
<text text-anchor="middle" x="234.5" y="-434.8" font-family="Times New Roman,serif" font-size="14.00">tf_op_layer_G_paper/4x4/Conv/PixelNorm/add: TensorFlowOpLayer</text>
<polyline fill="none" stroke="black" points="439,-415.5 439,-461.5 "/>
<text text-anchor="middle" x="467" y="-446.3" font-family="Times New Roman,serif" font-size="14.00">input:</text>
<polyline fill="none" stroke="black" points="439,-438.5 495,-438.5 "/>
<text text-anchor="middle" x="467" y="-423.3" font-family="Times New Roman,serif" font-size="14.00">output:</text>
<polyline fill="none" stroke="black" points="495,-415.5 495,-461.5 "/>
<text text-anchor="middle" x="536.5" y="-446.3" font-family="Times New Roman,serif" font-size="14.00">(?, 1, 4, 4)</text>
<polyline fill="none" stroke="black" points="495,-438.5 578,-438.5 "/>
<text text-anchor="middle" x="536.5" y="-423.3" font-family="Times New Roman,serif" font-size="14.00">[(?, 1, 4, 4)]</text>
</g>
<!-- 2267034682312&#45;&gt;2267034682256 -->
<g id="edge28" class="edge"><title>2267034682312&#45;&gt;2267034682256</title>
<path fill="none" stroke="black" d="M302.547,-498.366C302.749,-490.152 302.984,-480.658 303.204,-471.725"/>
<polygon fill="black" stroke="black" points="306.706,-471.69 303.454,-461.607 299.708,-471.517 306.706,-471.69"/>
</g>
<!-- 2267034682144 -->
<g id="node26" class="node"><title>2267034682144</title>
<polygon fill="none" stroke="black" points="28,-332.5 28,-378.5 586,-378.5 586,-332.5 28,-332.5"/>
<text text-anchor="middle" x="237.5" y="-351.8" font-family="Times New Roman,serif" font-size="14.00">tf_op_layer_G_paper/4x4/Conv/PixelNorm/Rsqrt: TensorFlowOpLayer</text>
<polyline fill="none" stroke="black" points="447,-332.5 447,-378.5 "/>
<text text-anchor="middle" x="475" y="-363.3" font-family="Times New Roman,serif" font-size="14.00">input:</text>
<polyline fill="none" stroke="black" points="447,-355.5 503,-355.5 "/>
<text text-anchor="middle" x="475" y="-340.3" font-family="Times New Roman,serif" font-size="14.00">output:</text>
<polyline fill="none" stroke="black" points="503,-332.5 503,-378.5 "/>
<text text-anchor="middle" x="544.5" y="-363.3" font-family="Times New Roman,serif" font-size="14.00">(?, 1, 4, 4)</text>
<polyline fill="none" stroke="black" points="503,-355.5 586,-355.5 "/>
<text text-anchor="middle" x="544.5" y="-340.3" font-family="Times New Roman,serif" font-size="14.00">[(?, 1, 4, 4)]</text>
</g>
<!-- 2267034682256&#45;&gt;2267034682144 -->
<g id="edge29" class="edge"><title>2267034682256&#45;&gt;2267034682144</title>
<path fill="none" stroke="black" d="M304.82,-415.366C305.124,-407.152 305.476,-397.658 305.806,-388.725"/>
<polygon fill="black" stroke="black" points="309.309,-388.73 306.181,-378.607 302.313,-388.47 309.309,-388.73"/>
</g>
<!-- 2267034682144&#45;&gt;2267034683264 -->
<g id="edge31" class="edge"><title>2267034682144&#45;&gt;2267034683264</title>
<path fill="none" stroke="black" d="M349.081,-332.366C367.925,-322.455 390.308,-310.682 410.087,-300.279"/>
<polygon fill="black" stroke="black" points="411.749,-303.36 418.97,-295.607 408.49,-297.164 411.749,-303.36"/>
</g>
<!-- 2267034683824 -->
<g id="node28" class="node"><title>2267034683824</title>
<polygon fill="none" stroke="black" points="223.5,-166.5 223.5,-212.5 698.5,-212.5 698.5,-166.5 223.5,-166.5"/>
<text text-anchor="middle" x="371" y="-185.8" font-family="Times New Roman,serif" font-size="14.00">tf_op_layer_G_paper/cond: TensorFlowOpLayer</text>
<polyline fill="none" stroke="black" points="518.5,-166.5 518.5,-212.5 "/>
<text text-anchor="middle" x="546.5" y="-197.3" font-family="Times New Roman,serif" font-size="14.00">input:</text>
<polyline fill="none" stroke="black" points="518.5,-189.5 574.5,-189.5 "/>
<text text-anchor="middle" x="546.5" y="-174.3" font-family="Times New Roman,serif" font-size="14.00">output:</text>
<polyline fill="none" stroke="black" points="574.5,-166.5 574.5,-212.5 "/>
<text text-anchor="middle" x="636.5" y="-197.3" font-family="Times New Roman,serif" font-size="14.00">(?, 512, 4, 4)</text>
<polyline fill="none" stroke="black" points="574.5,-189.5 698.5,-189.5 "/>
<text text-anchor="middle" x="636.5" y="-174.3" font-family="Times New Roman,serif" font-size="14.00">[(?, 3, 1024, 1024)]</text>
</g>
<!-- 2267034683264&#45;&gt;2267034683824 -->
<g id="edge32" class="edge"><title>2267034683264&#45;&gt;2267034683824</title>
<path fill="none" stroke="black" d="M461,-249.366C461,-241.152 461,-231.658 461,-222.725"/>
<polygon fill="black" stroke="black" points="464.5,-222.607 461,-212.607 457.5,-222.607 464.5,-222.607"/>
</g>
<!-- 2267034684048 -->
<g id="node29" class="node"><title>2267034684048</title>
<polygon fill="none" stroke="black" points="200.5,-83.5 200.5,-129.5 721.5,-129.5 721.5,-83.5 200.5,-83.5"/>
<text text-anchor="middle" x="371" y="-102.8" font-family="Times New Roman,serif" font-size="14.00">tf_op_layer_G_paper/cond/Identity: TensorFlowOpLayer</text>
<polyline fill="none" stroke="black" points="541.5,-83.5 541.5,-129.5 "/>
<text text-anchor="middle" x="569.5" y="-114.3" font-family="Times New Roman,serif" font-size="14.00">input:</text>
<polyline fill="none" stroke="black" points="541.5,-106.5 597.5,-106.5 "/>
<text text-anchor="middle" x="569.5" y="-91.3" font-family="Times New Roman,serif" font-size="14.00">output:</text>
<polyline fill="none" stroke="black" points="597.5,-83.5 597.5,-129.5 "/>
<text text-anchor="middle" x="659.5" y="-114.3" font-family="Times New Roman,serif" font-size="14.00">(?, 3, 1024, 1024)</text>
<polyline fill="none" stroke="black" points="597.5,-106.5 721.5,-106.5 "/>
<text text-anchor="middle" x="659.5" y="-91.3" font-family="Times New Roman,serif" font-size="14.00">[(?, 3, 1024, 1024)]</text>
</g>
<!-- 2267034683824&#45;&gt;2267034684048 -->
<g id="edge33" class="edge"><title>2267034683824&#45;&gt;2267034684048</title>
<path fill="none" stroke="black" d="M461,-166.366C461,-158.152 461,-148.658 461,-139.725"/>
<polygon fill="black" stroke="black" points="464.5,-139.607 461,-129.607 457.5,-139.607 464.5,-139.607"/>
</g>
<!-- 2267034684272 -->
<g id="node30" class="node"><title>2267034684272</title>
<polygon fill="none" stroke="black" points="206,-0.5 206,-46.5 716,-46.5 716,-0.5 206,-0.5"/>
<text text-anchor="middle" x="371" y="-19.8" font-family="Times New Roman,serif" font-size="14.00">tf_op_layer_G_paper/images_out: TensorFlowOpLayer</text>
<polyline fill="none" stroke="black" points="536,-0.5 536,-46.5 "/>
<text text-anchor="middle" x="564" y="-31.3" font-family="Times New Roman,serif" font-size="14.00">input:</text>
<polyline fill="none" stroke="black" points="536,-23.5 592,-23.5 "/>
<text text-anchor="middle" x="564" y="-8.3" font-family="Times New Roman,serif" font-size="14.00">output:</text>
<polyline fill="none" stroke="black" points="592,-0.5 592,-46.5 "/>
<text text-anchor="middle" x="654" y="-31.3" font-family="Times New Roman,serif" font-size="14.00">(?, 3, 1024, 1024)</text>
<polyline fill="none" stroke="black" points="592,-23.5 716,-23.5 "/>
<text text-anchor="middle" x="654" y="-8.3" font-family="Times New Roman,serif" font-size="14.00">[(?, 3, 1024, 1024)]</text>
</g>
<!-- 2267034684048&#45;&gt;2267034684272 -->
<g id="edge34" class="edge"><title>2267034684048&#45;&gt;2267034684272</title>
<path fill="none" stroke="black" d="M461,-83.3664C461,-75.1516 461,-65.6579 461,-56.7252"/>
<polygon fill="black" stroke="black" points="464.5,-56.6068 461,-46.6068 457.5,-56.6069 464.5,-56.6068"/>
</g>
</g>
</svg>
